<svg xmlns="http://www.w3.org/2000/svg" width="29.093" height="29.085" viewBox="0 0 29.093 29.085">
  <path id="brand_instagram" data-name="brand / instagram" d="M14.539,29.085c-3.98,0-4.446-.021-5.99-.089a10.621,10.621,0,0,1-3.533-.725A7.473,7.473,0,0,1,.768,24.028,10.563,10.563,0,0,1,.09,20.5C0,18.956,0,18.45,0,14.513c0-4,.021-4.459.09-5.982A10.6,10.6,0,0,1,.768,5.008,7.448,7.448,0,0,1,5.02.765,10.569,10.569,0,0,1,8.548.087C10.092,0,10.6,0,14.539,0c3.987,0,4.447.02,5.97.087h.017A10.647,10.647,0,0,1,24.07.765a7.462,7.462,0,0,1,4.252,4.244A10.566,10.566,0,0,1,29,8.583c.09,1.546.09,2.052.09,5.985S29.071,19.016,29,20.52v.027a10.62,10.62,0,0,1-.68,3.53A7.473,7.473,0,0,1,24.07,28.32,10.655,10.655,0,0,1,20.539,29C19,29.085,18.489,29.085,14.539,29.085ZM8.579,2.641a8.019,8.019,0,0,0-2.7.5A4.827,4.827,0,0,0,3.107,5.9a8.086,8.086,0,0,0-.5,2.72c-.085,1.563-.085,1.973-.085,5.89,0,3.9.015,4.361.085,5.892a8.147,8.147,0,0,0,.5,2.694,4.834,4.834,0,0,0,2.776,2.759,7.951,7.951,0,0,0,2.7.5c1.564.09,1.975.09,5.9.09,3.973,0,4.381-.019,5.9-.09a7.967,7.967,0,0,0,2.7-.5A4.861,4.861,0,0,0,25.846,23.1a8.1,8.1,0,0,0,.5-2.723h.02c.068-1.541.068-1.953.068-5.892,0-3.984-.019-4.388-.087-5.894a8.076,8.076,0,0,0-.5-2.689,4.849,4.849,0,0,0-2.762-2.76,7.961,7.961,0,0,0-2.7-.5c-1.562-.088-1.972-.088-5.9-.088-3.964,0-4.373.019-5.9.088Zm5.96,19.32h-.007a7.466,7.466,0,1,1,.007,0Zm0-12.3A4.838,4.838,0,1,0,19.384,14.5,4.847,4.847,0,0,0,14.539,9.665ZM22.3,8.515h-.005a1.749,1.749,0,1,1,.005,0Z" fill="#fff"/>
</svg>
