<svg xmlns="http://www.w3.org/2000/svg" width="904.414" height="610.956" viewBox="0 0 904.414 610.956">
  <g id="Group_751" data-name="Group 751" transform="translate(616.566 -638.927)">
    <path id="Path_3369" data-name="Path 3369" d="M-352.168,789.943q-4.3,0-8.6-.179a217.952,217.952,0,0,1-27.878-3,244.718,244.718,0,0,1-30.768-7.444,290.767,290.767,0,0,1-33.656-12.864A361.661,361.661,0,0,1-489.609,747.2c-6.391-3.833-12.9-7.981-19.354-12.331-6.63-4.47-13.384-9.279-20.076-14.294-6.869-5.148-13.867-10.658-20.8-16.378-7.108-5.866-14.348-12.119-21.52-18.585-7.347-6.624-14.831-13.66-22.243-20.912-7.586-7.423-15.313-15.282-22.966-23.362l1.343-2.413c7.632,8.057,15.337,15.895,22.9,23.3,7.39,7.23,14.85,14.244,22.173,20.847,7.147,6.444,14.363,12.675,21.446,18.52,6.905,5.7,13.876,11.188,20.718,16.316,6.664,4.994,13.39,9.783,19.991,14.234,6.422,4.329,12.9,8.459,19.264,12.274a359.767,359.767,0,0,0,36.351,19.158,288.942,288.942,0,0,0,33.451,12.786,243.068,243.068,0,0,0,30.557,7.393,216.365,216.365,0,0,0,27.67,2.976,205.266,205.266,0,0,0,24.79-.468c5.567-.445,11.12-1.123,16.5-2.017,5.127-.851,10.268-1.925,15.283-3.193a197.1,197.1,0,0,0,27.589-9.228c7.76-3.225,15.858-7.112,24.757-11.883,7.935-4.255,15.736-8.791,23.279-13.178,8.659-5.035,17.612-10.242,26.706-14.981,4.9-2.552,9.453-4.773,13.926-6.79,5.019-2.264,9.809-4.216,14.645-5.967a172.912,172.912,0,0,1,32.452-8.394,178.415,178.415,0,0,1,18.308-1.9,199.94,199.94,0,0,1,20.03-.008c6.278.306,12.524.892,18.564,1.742,5.745.808,11.49,1.881,17.074,3.189a195.949,195.949,0,0,1,30.415,9.831c18.849,7.785,35.222,17.655,51.056,27.2,8.165,4.921,15.876,9.57,23.881,13.935,4.3,2.343,8.262,4.377,12.124,6.218C55,772.9,59.1,774.668,63.19,776.254a138.422,138.422,0,0,0,26.946,7.538,132.123,132.123,0,0,0,14.837,1.671,142.224,142.224,0,0,0,16.012-.031,153.29,153.29,0,0,0,26.229-3.826,166.3,166.3,0,0,0,24.691-7.933,191.5,191.5,0,0,0,23.13-11.377,228.236,228.236,0,0,0,21.544-14.159c6.655-4.919,13.361-10.4,19.93-16.277,6.105-5.467,12.258-11.433,18.287-17.73,5.542-5.79,11.132-12.02,16.615-18.517,4.962-5.881,9.98-12.151,14.914-18.636l1.524,2.2c-4.961,6.521-10.007,12.827-15,18.741-5.517,6.538-11.143,12.808-16.72,18.635-6.071,6.342-12.267,12.35-18.417,17.857-6.62,5.928-13.379,11.449-20.089,16.407A230.251,230.251,0,0,1,195.887,765.1a193.373,193.373,0,0,1-23.355,11.488,168.026,168.026,0,0,1-24.947,8.015,154.93,154.93,0,0,1-26.508,3.867c-44.932,2.582-75.219-15.673-107.283-35C-1.98,743.963-18.291,734.131-37.012,726.4a194.229,194.229,0,0,0-30.151-9.746c-5.536-1.3-11.232-2.36-16.928-3.162-5.992-.843-12.188-1.424-18.418-1.728a198.215,198.215,0,0,0-19.869.008,176.809,176.809,0,0,0-18.141,1.878,171.268,171.268,0,0,0-32.14,8.314c-4.793,1.736-9.542,3.672-14.519,5.916-4.44,2-8.965,4.209-13.831,6.745-9.055,4.718-17.989,9.914-26.629,14.938-7.558,4.395-15.373,8.94-23.337,13.21-8.953,4.8-17.1,8.713-24.92,11.961a198.8,198.8,0,0,1-27.829,9.308c-5.059,1.279-10.246,2.362-15.417,3.221-5.428.9-11.026,1.585-16.639,2.034C-341.2,789.726-346.685,789.943-352.168,789.943Z" transform="translate(0 0)" fill="#a2b0c3"/>
    <path id="Path_3370" data-name="Path 3370" d="M127.772,854.827c-40.421,0-68.788-15.213-98.717-31.262-15.646-8.39-31.824-17.065-50.366-23.879A209.389,209.389,0,0,0-51.167,791.1c-5.48-1.14-11.118-2.076-16.756-2.779-5.929-.74-12.061-1.248-18.226-1.512-6.716-.283-13.361-.278-19.752.014-6.095.278-12.161.827-18.032,1.631a190.705,190.705,0,0,0-31.932,7.207c-4.76,1.5-9.475,3.181-14.416,5.125-4.408,1.734-8.9,3.645-13.727,5.84-8.984,4.084-17.843,8.58-26.411,12.928-15.085,7.655-30.684,15.571-48.036,21.842a217.119,217.119,0,0,1-27.724,8.043c-5.042,1.1-10.214,2.032-15.371,2.766-5.414.771-11,1.351-16.6,1.726a233.244,233.244,0,0,1-24.811.342,244.239,244.239,0,0,1-27.669-2.7,269.87,269.87,0,0,1-30.526-6.608,312.741,312.741,0,0,1-33.38-11.372A377.191,377.191,0,0,1-470.77,816.6c-12.851-6.856-26-14.754-39.088-23.475-13.792-9.191-27.9-19.557-41.942-30.811-14.734-11.811-29.806-24.934-44.8-39.005l1.181-2.387c14.95,14.032,29.98,27.119,44.671,38.9,13.993,11.217,28.056,21.548,41.8,30.707,13.035,8.687,26.133,16.553,38.932,23.381a375.473,375.473,0,0,0,36.066,16.916,311.2,311.2,0,0,0,33.2,11.312A268.317,268.317,0,0,0-370.4,848.7a242.714,242.714,0,0,0,27.5,2.686,231.713,231.713,0,0,0,24.649-.339c5.564-.372,11.11-.949,16.486-1.714,5.12-.729,10.254-1.653,15.258-2.746a215.543,215.543,0,0,0,27.52-7.984c7.735-2.795,15.8-6.168,24.666-10.312,7.9-3.695,15.668-7.635,23.177-11.446,8.584-4.356,17.461-8.861,26.479-12.96,4.856-2.208,9.373-4.13,13.808-5.875,4.977-1.958,9.728-3.647,14.523-5.163a192.271,192.271,0,0,1,32.193-7.266c5.916-.811,12.029-1.364,18.17-1.644,6.435-.294,13.126-.3,19.886-.014,6.206.265,12.38.777,18.35,1.522,5.679.708,11.358,1.65,16.88,2.8A211.031,211.031,0,0,1-20.771,796.9c18.654,6.854,34.887,15.56,50.586,23.978,8.112,4.35,15.774,8.459,23.736,12.322a219.22,219.22,0,0,0,24.522,10.312,152.44,152.44,0,0,0,26.866,6.714,148.524,148.524,0,0,0,14.8,1.51c5.2.269,10.578.273,15.979.012a165.827,165.827,0,0,0,25.932-3.369,176.072,176.072,0,0,0,24.41-7.061,196.837,196.837,0,0,0,22.861-10.161,227.072,227.072,0,0,0,21.284-12.668c6.578-4.407,13.2-9.314,19.679-14.584,6.032-4.906,12.1-10.258,18.044-15.907,5.474-5.205,10.984-10.8,16.378-16.636,4.9-5.3,9.841-10.943,14.683-16.77l1.38,2.175c-4.869,5.86-9.838,11.535-14.767,16.867-5.428,5.87-10.973,11.5-16.482,16.741-5.981,5.688-12.094,11.077-18.169,16.017-6.529,5.31-13.2,10.254-19.828,14.695a229,229,0,0,1-21.459,12.772A198.564,198.564,0,0,1,186.6,844.1a177.688,177.688,0,0,1-24.634,7.125,167.365,167.365,0,0,1-26.175,3.4Q131.706,854.829,127.772,854.827Z" transform="translate(-13.212 -43.886)" fill="#9caabf" opacity="0.947"/>
    <path id="Path_3371" data-name="Path 3371" d="M143.038,920.94c-2.9,0-5.766-.067-8.585-.2-5-.238-10.008-.7-14.889-1.359a172.771,172.771,0,0,1-27.006-5.932,239.138,239.138,0,0,1-24.564-9.038c-7.945-3.371-15.567-6.944-23.637-10.727-15.523-7.276-31.574-14.8-49.943-20.7a230.309,230.309,0,0,0-29.571-7.424c-5.426-.985-11.008-1.792-16.589-2.4-5.869-.637-11.939-1.073-18.04-1.3-6.673-.236-13.276-.23-19.626.019-6.055.238-12.083.7-17.914,1.385a218,218,0,0,0-31.71,6.1,274.9,274.9,0,0,0-27.925,9.27c-8.909,3.451-17.69,7.248-26.182,10.92-15.019,6.494-30.549,13.21-47.837,18.51a243.46,243.46,0,0,1-27.632,6.778c-5.028.924-10.187,1.7-15.334,2.311-5.4.64-10.977,1.118-16.57,1.419-8.152.447-16.442.518-24.638.212-9.055-.339-18.294-1.149-27.463-2.408a303.92,303.92,0,0,1-30.284-5.773A344.01,344.01,0,0,1-416,900.727c-11.814-4.17-23.9-9.126-35.925-14.732-12.741-5.94-25.777-12.778-38.745-20.325-13.67-7.956-27.654-16.925-41.564-26.66-14.6-10.218-29.534-21.569-44.384-33.737l1.015-2.351c14.813,12.137,29.707,23.458,44.269,33.649,13.869,9.706,27.81,18.648,41.437,26.579,12.923,7.521,25.913,14.336,38.608,20.254,11.977,5.583,24.016,10.521,35.781,14.674a342.5,342.5,0,0,0,32.957,9.837,302.509,302.509,0,0,0,30.136,5.745c9.12,1.253,18.312,2.059,27.319,2.4,8.152.3,16.4.234,24.506-.211,5.563-.3,11.107-.774,16.478-1.411,5.116-.606,10.244-1.379,15.241-2.3a241.993,241.993,0,0,0,27.463-6.737c17.205-5.275,32.694-11.973,47.673-18.45,8.506-3.678,17.3-7.481,26.239-10.943a276.55,276.55,0,0,1,28.082-9.321,219.5,219.5,0,0,1,31.923-6.141c5.868-.686,11.933-1.155,18.025-1.394,6.385-.251,13.025-.257,19.734-.02,6.136.225,12.241.664,18.144,1.3,5.616.609,11.232,1.421,16.692,2.412a231.821,231.821,0,0,1,29.762,7.472C13.329,876.248,29.428,883.794,45,891.092c8.056,3.776,15.665,7.343,23.582,10.7a237.773,237.773,0,0,0,24.406,8.981,171.3,171.3,0,0,0,26.775,5.882c4.839.659,9.806,1.112,14.762,1.348,5.189.247,10.551.265,15.938.054a181.826,181.826,0,0,0,25.634-2.911,189.157,189.157,0,0,0,24.128-6.187,205.356,205.356,0,0,0,22.592-8.943,229.252,229.252,0,0,0,21.025-11.177c6.5-3.895,13.037-8.232,19.429-12.891,5.96-4.345,11.949-9.083,17.8-14.084,5.407-4.62,10.838-9.585,16.142-14.756,4.841-4.719,9.7-9.734,14.452-14.905l1.232,2.146c-4.776,5.2-9.667,10.246-14.536,14.992-5.337,5.2-10.8,10.2-16.243,14.847-5.891,5.033-11.92,9.8-17.919,14.177-6.436,4.692-13.019,9.06-19.566,12.982a230.928,230.928,0,0,1-21.182,11.26,206.833,206.833,0,0,1-22.768,9.012,190.6,190.6,0,0,1-24.321,6.237,183.258,183.258,0,0,1-25.842,2.935C148.014,920.891,145.516,920.94,143.038,920.94Z" transform="translate(-26.427 -87.774)" fill="#95a4ba" opacity="0.894"/>
    <path id="Path_3372" data-name="Path 3372" d="M158.492,987.062c-3.119,0-6.209-.066-9.24-.2-4.974-.216-9.958-.617-14.814-1.191a199.231,199.231,0,0,1-26.855-5.078c-7.7-2-15.457-4.437-24.406-7.68-7.89-2.86-15.452-5.887-23.459-9.091-15.408-6.167-31.34-12.543-49.545-17.531a260.006,260.006,0,0,0-29.3-6.271c-5.375-.83-10.9-1.509-16.431-2.018-5.812-.534-11.823-.9-17.865-1.083-6.624-.19-13.179-.181-19.483.025-6.011.2-11.994.58-17.782,1.139a258.3,258.3,0,0,0-31.467,4.994c-8.75,1.943-17.807,4.421-27.69,7.576-8.829,2.818-17.524,5.917-25.933,8.914-14.964,5.332-30.438,10.847-47.674,15.176-9.29,2.333-18.306,4.137-27.561,5.513a296.658,296.658,0,0,1-31.866,2.968c-8.1.341-16.335.369-24.467.083-8.993-.317-18.163-1.028-27.256-2.115-9.894-1.182-20-2.844-30.044-4.939-10.8-2.255-21.849-5.078-32.83-8.392-11.716-3.535-23.7-7.731-35.616-12.471-12.631-5.024-25.551-10.8-38.4-17.177-13.548-6.721-27.4-14.294-41.185-22.51-14.467-8.625-29.26-18.2-43.97-28.468l.848-2.3c14.676,10.242,29.435,19.8,43.867,28.4,13.745,8.194,27.565,15.748,41.076,22.45,12.812,6.355,25.693,12.117,38.286,17.126,11.878,4.724,23.821,8.906,35.5,12.43,10.942,3.3,21.947,6.115,32.71,8.361,10,2.088,20.07,3.743,29.925,4.92,9.055,1.082,18.187,1.79,27.142,2.106,8.1.285,16.293.258,24.362-.082a295.324,295.324,0,0,0,31.721-2.954c9.21-1.37,18.181-3.164,27.426-5.487,17.169-4.312,32.609-9.814,47.541-15.136,8.42-3,17.128-6.1,25.979-8.929,9.924-3.168,19.023-5.657,27.815-7.609a259.68,259.68,0,0,1,31.634-5.021c5.817-.562,11.829-.947,17.869-1.145,6.331-.207,12.914-.216,19.567-.025,6.071.185,12.11.551,17.95,1.088,5.556.511,11.112,1.193,16.515,2.028a261.389,261.389,0,0,1,29.457,6.3c18.284,5.01,34.256,11.4,49.7,17.584,29.684,11.88,57.807,23.136,98.234,23.136q3.306,0,6.723-.1h0a202.9,202.9,0,0,0,25.336-2.453,206.931,206.931,0,0,0,23.846-5.313,218.27,218.27,0,0,0,22.322-7.723c6.949-2.831,13.936-6.09,20.767-9.685,6.424-3.382,12.877-7.149,19.18-11.2,5.889-3.783,11.8-7.908,17.56-12.261a323.35,323.35,0,0,0,30.129-25.916l1.08,2.112a325.293,325.293,0,0,1-30.307,26.07c-5.8,4.38-11.744,8.531-17.669,12.338-6.343,4.074-12.837,7.866-19.3,11.27-6.876,3.619-13.91,6.9-20.9,9.749a219.729,219.729,0,0,1-22.474,7.775,208.392,208.392,0,0,1-24.009,5.349,204.233,204.233,0,0,1-25.51,2.469h0Q161.854,987.062,158.492,987.062Z" transform="translate(-39.644 -131.666)" fill="#8f9eb6" opacity="0.841"/>
    <path id="Path_3373" data-name="Path 3373" d="M174.162,1053.191a247.045,247.045,0,0,1-24.817-1.22,238.693,238.693,0,0,1-26.682-4.218c-7.649-1.647-15.347-3.654-24.226-6.315-7.828-2.347-15.671-4.94-23.256-7.448-15.306-5.061-31.133-10.3-49.188-14.377-9.741-2.2-19.245-3.879-29.053-5.124a330.5,330.5,0,0,0-34-2.508c-12.971-.283-25.053.019-36.935.924-10.6.807-20.8,2.078-31.185,3.888-8.668,1.51-17.638,3.434-27.423,5.882-8.738,2.186-17.335,4.588-25.649,6.91-14.931,4.17-30.371,8.483-47.578,11.84-9.272,1.809-18.277,3.2-27.529,4.248-10.394,1.178-20.822,1.9-31.881,2.2-8.058.236-16.233.22-24.3-.047-8.933-.3-18.035-.908-27.052-1.821-9.822-.994-19.849-2.376-29.8-4.106-10.717-1.863-21.671-4.186-32.556-6.9-11.618-2.9-23.5-6.337-35.307-10.212-12.521-4.108-25.325-8.829-38.056-14.03-13.426-5.485-27.155-11.663-40.806-18.36-14.333-7.032-28.987-14.838-43.554-23.2l.679-2.244c14.539,8.346,29.164,16.136,43.468,23.154,13.62,6.683,27.319,12.846,40.715,18.319,12.7,5.189,25.473,9.9,37.964,14,11.779,3.865,23.626,7.291,35.212,10.184,10.854,2.71,21.776,5.026,32.462,6.884,9.925,1.725,19.922,3.1,29.713,4.094,8.988.91,18.06,1.521,26.964,1.815,8.037.266,16.185.281,24.218.046,11.023-.3,21.416-1.022,31.773-2.2,9.217-1.045,18.189-2.429,27.427-4.232,17.155-3.347,32.569-7.652,47.475-11.815,8.323-2.325,16.929-4.728,25.685-6.919,9.816-2.456,18.817-4.387,27.517-5.9,10.431-1.817,20.672-3.094,31.309-3.9,9.049-.689,18.214-1.03,27.8-1.03q4.566,0,9.266.1A331.771,331.771,0,0,1-2.9,1012.068c9.851,1.251,19.395,2.934,29.177,5.145,18.119,4.1,33.978,9.341,49.315,14.413,15.744,5.207,30.616,10.124,47.343,13.726a237.2,237.2,0,0,0,26.538,4.195,250.1,250.1,0,0,0,30.463,1.152h0a230.226,230.226,0,0,0,48.6-6.431c7.378-1.789,14.8-3.977,22.053-6.5,6.869-2.391,13.77-5.148,20.509-8.192a281.488,281.488,0,0,0,65.916-42.114l.925,2.071a283.1,283.1,0,0,1-66.291,42.354c-6.778,3.062-13.718,5.834-20.627,8.239-7.3,2.54-14.759,4.741-22.18,6.54a231.5,231.5,0,0,1-48.877,6.467h0Q177.035,1053.191,174.162,1053.191Z" transform="translate(-52.861 -175.561)" fill="#8898b2" opacity="0.788"/>
    <path id="Path_3374" data-name="Path 3374" d="M190.523,1119.33c-9.008,0-17.623-.346-26.216-1.051-8.861-.727-17.517-1.824-26.465-3.352-16.656-2.846-31.4-6.681-47.013-10.742-15.23-3.961-30.979-8.057-48.912-11.238-9.674-1.716-19.112-3.019-28.853-3.982-10.972-1.085-22.015-1.713-33.759-1.919q-4.415-.066-8.7-.066c-9.585,0-18.742.248-27.788.75-10.47.581-20.551,1.491-30.821,2.782-19.091,2.4-36.013,5.806-52.377,9.1-14.946,3.007-30.4,6.117-47.628,8.5-9.28,1.285-18.3,2.26-27.58,2.981-10.421.81-20.89,1.28-32.007,1.438-8.018.13-16.136.071-24.127-.176-8.877-.273-17.91-.787-26.848-1.527-9.752-.807-19.7-1.909-29.566-3.274-10.634-1.472-21.5-3.294-32.282-5.417-11.522-2.267-23.3-4.943-35-7.953-12.413-3.194-25.1-6.856-37.712-10.885-13.306-4.251-26.906-9.033-40.425-14.212-14.2-5.44-28.713-11.474-43.137-17.934l.512-2.167c14.4,6.45,28.892,12.474,43.069,17.905,13.5,5.171,27.073,9.944,40.356,14.188,12.588,4.022,25.252,7.677,37.642,10.865,11.677,3,23.429,5.675,34.928,7.938,10.764,2.118,21.6,3.936,32.214,5.4,9.845,1.362,19.77,2.462,29.5,3.267,8.917.738,17.929,1.251,26.785,1.524,7.972.246,16.071.3,24.072.175,11.093-.158,21.537-.627,31.932-1.435,9.254-.719,18.252-1.691,27.508-2.973,17.19-2.38,32.626-5.486,47.554-8.49,16.386-3.3,33.33-6.706,52.466-9.113,10.3-1.3,20.407-2.208,30.9-2.79,9.067-.5,18.249-.751,27.855-.751q4.3,0,8.722.066c11.779.207,22.853.837,33.858,1.925,9.773.967,19.241,2.273,28.946,3.995,17.981,3.189,33.754,7.292,49.008,11.259,15.585,4.053,30.3,7.882,46.909,10.719,8.913,1.523,17.535,2.615,26.36,3.339,9.87.809,19.771,1.144,30.267,1.023h0c70.2-1.158,123.049-28.877,155.022-51.927l.767,2.019c-32.133,23.165-85.242,51.023-155.77,52.187h0Q192.591,1119.33,190.523,1119.33Z" transform="translate(-66.077 -219.463)" fill="#8292ad" opacity="0.734"/>
    <path id="Path_3375" data-name="Path 3375" d="M208.283,1185.489c-9.985,0-19.446-.292-28.888-.893-8.753-.556-17.307-1.368-26.149-2.48-16.454-2.071-30.977-4.807-46.353-7.705-30.685-5.782-62.414-11.762-111.229-12.293-12.521-.1-24.207.045-35.724.443-10.258.355-20.145.9-30.225,1.679-18.726,1.439-35.274,3.461-51.277,5.416-15.1,1.844-30.707,3.751-48.092,5.162-9.359.759-18.473,1.319-27.863,1.711-10.537.439-21.15.657-32.445.666-.777,0-1.555,0-2.33,0-16.265,0-32.081-.506-48.274-1.543-9.688-.62-19.555-1.442-29.328-2.443-10.556-1.081-21.325-2.4-32.009-3.93-11.43-1.634-23.1-3.551-34.689-5.7-12.307-2.279-24.879-4.884-37.367-7.742-13.187-3.018-26.659-6.4-40.044-10.066-14.068-3.848-28.441-8.111-42.719-12.668l.349-2.072c14.263,4.553,28.619,8.811,42.671,12.655,13.369,3.657,26.825,7.04,40,10.054,12.472,2.854,25.028,5.455,37.32,7.732,11.573,2.144,23.228,4.058,34.643,5.689,10.669,1.525,21.423,2.846,31.964,3.925,9.759,1,19.612,1.82,29.285,2.439,16.939,1.085,33.467,1.588,50.53,1.537,11.281-.009,21.879-.227,32.4-.666,9.375-.391,18.474-.95,27.818-1.708,17.362-1.409,32.961-3.314,48.046-5.157,16.016-1.956,32.577-3.979,51.328-5.421,10.1-.776,20-1.326,30.273-1.682,11.533-.4,23.235-.544,35.773-.443,48.915.532,80.695,6.521,111.428,12.313,15.358,2.894,29.865,5.628,46.284,7.694,8.819,1.11,17.349,1.919,26.08,2.474,9.416.6,18.855.891,28.814.891h1.125a321.6,321.6,0,0,0,88.944-13.018,298.594,298.594,0,0,0,35.278-12.9,274.465,274.465,0,0,0,28.743-14.686l.607,1.955a275.785,275.785,0,0,1-28.881,14.756,299.788,299.788,0,0,1-35.423,12.957,322.714,322.714,0,0,1-89.26,13.066h-1.131Z" transform="translate(-79.291 -263.37)" fill="#7b8ca9" opacity="0.681"/>
    <path id="Path_3376" data-name="Path 3376" d="M226.052,1251.681c-.642,0-1.279,0-1.922,0-10.188-.044-19.817-.268-29.438-.684-8.588-.371-16.985-.889-25.67-1.584-16.153-1.291-31.016-3.027-45.389-4.706-30.756-3.592-62.558-7.307-111.615-7.507H9.529c-46.594,0-77.184,1.3-106.792,2.563-27.3,1.162-53.359,2.271-89.874,2.271-7.873,0-16.229-.052-25.192-.165-17.23-.179-33.662-.629-50.236-1.375-20.093-.9-40.559-2.27-60.829-4.058-23.43-2.067-47.454-4.772-71.4-8.042-26.842-3.664-54.419-8.148-81.964-13.328l.194-1.956c27.527,5.177,55.086,9.658,81.911,13.32,23.934,3.267,47.941,5.971,71.354,8.037,20.255,1.787,40.706,3.151,60.784,4.055,16.561.745,32.982,1.195,50.2,1.374,8.955.113,17.312.165,25.179.165,36.5,0,62.541-1.109,89.831-2.27,29.617-1.261,60.226-2.564,106.838-2.564h2.49c49.117.2,80.949,3.918,111.733,7.514,15.025,1.755,29.218,3.413,45.351,4.7,8.672.693,17.056,1.211,25.632,1.582,9.607.416,19.223.639,29.4.683.639,0,1.28,0,1.918,0a407.01,407.01,0,0,0,85.909-8.89,343.544,343.544,0,0,0,34.793-9.426,285.593,285.593,0,0,0,28.286-10.968l.448,1.875a286.675,286.675,0,0,1-28.4,11.013,344.546,344.546,0,0,1-34.9,9.457A408.134,408.134,0,0,1,226.052,1251.681Z" transform="translate(-92.499 -307.284)" fill="#7586a4" opacity="0.628"/>
    <path id="Path_3377" data-name="Path 3377" d="M248.152,1317.935q-4.636,0-9.311-.064c-37.6-.515-64.448-1.692-90.416-2.83-32.47-1.423-63.239-2.772-112.074-2.772-2.613,0-5.269,0-7.988.011-7.152.044-14.04.066-20.707.066-20.857,0-39.6-.215-57.819-.657-21.739-.527-40.972-1.337-61.335-2.193-22.842-.962-48.732-2.052-83.2-2.958l-10.931-.26c-29.08-.69-65.272-1.549-107.143-2.956-49-1.647-96.118-3.713-144.037-6.315l.052-1.821c47.912,2.6,95.021,4.667,144.017,6.314,41.866,1.407,78.055,2.266,107.133,2.956l10.932.26c34.482.907,60.376,2,83.221,2.958,20.358.857,39.588,1.666,61.318,2.193,18.215.442,36.951.657,57.8.657,6.667,0,13.548-.022,20.7-.066q4.075-.012,8-.011c48.861,0,79.629,1.349,112.113,2.773,25.961,1.138,52.806,2.314,90.387,2.829a597.713,597.713,0,0,0,86.708-4.82c11.957-1.593,23.5-3.579,34.309-5.9,9.955-2.139,19.318-4.569,27.831-7.222l.292,1.777c-8.541,2.663-17.935,5.1-27.919,7.245-10.834,2.328-22.4,4.318-34.386,5.914A589.426,589.426,0,0,1,248.152,1317.935Z" transform="translate(-105.699 -351.204)" fill="#6f81a0" opacity="0.575"/>
    <path id="Path_3378" data-name="Path 3378" d="M31.215,1377.307c-8.652,0-16.937-.119-25.069-.36-10.96-.324-21.434-.864-32.019-1.65-19.74-1.466-36.614-3.546-54.48-5.748-27.23-3.356-55.386-6.827-96.826-8.484-19.14-.721-39.39-1.083-60.548-1.083q-23.669,0-48.777.6c-47.362,1.138-97.989,3.9-150.475,8.211l-.072-1.666c52.5-4.311,103.148-7.075,150.526-8.214,16.718-.4,33.013-.6,48.8-.6,21.174,0,41.43.361,60.584,1.083,41.477,1.659,69.652,5.132,96.9,8.49,17.855,2.2,34.719,4.28,54.437,5.744,10.572.785,21.032,1.324,31.98,1.648,12.218.361,24.787.449,38.423.269,37.761-.379,65.383-1.33,89.753-2.168,25.181-.866,47.986-1.65,76.761-1.65,12.715,0,26.591.153,42.361.52q17.342.4,33.668.4c18.428,0,35.8-.386,51.918-1.156,12.095-.578,23.475-1.375,33.825-2.372,10.079-.97,19.289-2.138,27.376-3.472l.144,1.658c-8.107,1.337-17.337,2.508-27.436,3.48-10.364,1-21.758,1.8-33.867,2.375-16.131.77-33.52,1.157-51.959,1.157q-16.316,0-33.689-.4c-51.433-1.2-82.778-.118-119.072,1.13-24.375.839-52,1.789-89.772,2.168C40.031,1377.277,35.576,1377.307,31.215,1377.307Z" transform="translate(-118.797 -384.977)" fill="#687b9c" opacity="0.522"/>
    <path id="Path_3379" data-name="Path 3379" d="M48.8,1432.686c-48.056,0-78.177-6.23-109.937-12.8-27.59-5.705-56.119-11.605-98.566-13.889-12.391-.639-25.191-.961-38.174-.961q-5.467,0-10.971.076c-19.207.266-39.165,1.234-59.318,2.88-22.553,1.841-45.923,4.576-69.462,8.129-25.9,3.909-52.671,8.91-79.576,14.863l-.175-1.5c26.923-5.958,53.715-10.962,79.631-14.874,23.557-3.556,46.945-6.292,69.516-8.135,20.171-1.647,40.147-2.616,59.372-2.882,16.758-.232,33.31.066,49.2.886,42.508,2.287,71.068,8.193,98.687,13.9,31.714,6.558,61.805,12.78,109.779,12.78q5.81,0,11.976-.125c18.812-.326,36.675-1.176,54.61-2.6,15.859-1.256,29.856-2.8,43.391-4.283,16.364-1.8,31.82-3.5,49.214-4.572,9.32-.576,18.4-.923,27.751-1.061,10.427-.154,20.988-.048,32.288.325,23.248.766,44.841,1.669,63.892,2.467,33.992,1.422,60.841,2.545,80.827,2.295l.01,1.517q-2.836.035-5.858.035c-19.292,0-44.221-1.043-75.012-2.331-19.05-.8-40.641-1.7-63.885-2.466-11.287-.372-21.836-.478-32.249-.324-9.34.138-18.406.485-27.713,1.06-17.374,1.073-32.821,2.771-49.175,4.568-13.542,1.488-27.544,3.027-43.416,4.285-17.952,1.423-35.831,2.273-54.658,2.6Q54.615,1432.687,48.8,1432.686Z" transform="translate(-131.842 -409.157)" fill="#627597" opacity="0.469"/>
    <path id="Path_3380" data-name="Path 3380" d="M-397.43,1492.97l-.253-1.32c13.612-4.945,27.3-9.532,40.675-13.633,12.785-3.919,25.633-7.5,38.188-10.644,11.955-2.994,23.965-5.671,35.7-7.958,11.124-2.168,22.294-4.043,33.2-5.572,10.29-1.443,20.619-2.617,30.7-3.489,9.452-.818,18.939-1.392,28.2-1.708,16.539-.563,32.978-.32,48.859.723,42.851,2.9,71.459,11.245,99.125,19.314,8.221,2.4,16.722,4.877,25.308,7.11,9.729,2.53,18.291,4.424,26.946,5.961a299.921,299.921,0,0,0,30.825,3.84,363.724,363.724,0,0,0,36.945.744c10.149-.252,19.761-.756,29.387-1.538,8.538-.694,16.862-1.592,25.45-2.744,15.906-2.134,29.975-4.787,43.582-7.353,16-3.017,31.108-5.867,48.2-7.744,9.17-1.007,18.1-1.644,27.288-1.947,4.128-.136,8.276-.2,12.48-.2,6.245,0,12.615.15,19.24.453,23.123.928,46.286,2.807,70.81,5.746,21,2.516,39.633,5.419,54.605,7.751,6.168.961,11.995,1.868,17.225,2.632l-.1,1.357c-5.234-.764-11.062-1.672-17.232-2.633-14.967-2.331-33.594-5.233-54.58-7.747-24.505-2.936-47.649-4.814-70.755-5.742-11.068-.5-21.425-.585-31.666-.248-9.174.3-18.082.938-27.233,1.943-17.069,1.874-32.166,4.721-48.149,7.735-13.616,2.568-27.695,5.223-43.62,7.36-8.6,1.154-16.938,2.053-25.488,2.748-9.639.783-19.264,1.287-29.426,1.54q-5.857.163-11.471.163c-8.823,0-17.258-.3-25.546-.909a300.448,300.448,0,0,1-30.9-3.849c-8.555-1.519-17.388-3.473-27-5.974-8.6-2.236-17.1-4.717-25.329-7.116-27.628-8.058-56.2-16.39-98.968-19.286-10.31-.677-20.858-1.016-31.514-1.016q-8.6,0-17.272.295c-9.245.314-18.718.888-28.158,1.7-10.069.871-20.385,2.044-30.662,3.485-10.894,1.527-22.051,3.4-33.162,5.566-11.719,2.284-23.716,4.959-35.658,7.949-12.542,3.141-25.378,6.718-38.15,10.634C-370.159,1483.447-383.831,1488.029-397.43,1492.97Z" transform="translate(-144.903 -433.134)" fill="#5b6f93" opacity="0.416"/>
    <path id="Path_3381" data-name="Path 3381" d="M-377.651,1554.9l-.3-1.138c13.471-6.846,27.02-13.2,40.27-18.894,12.656-5.436,25.381-10.412,37.821-14.788,11.839-4.165,23.738-7.9,35.367-11.1,11.019-3.032,22.09-5.665,32.908-7.827,10.2-2.037,20.438-3.711,30.443-4.974,9.368-1.182,18.78-2.036,27.974-2.538,6.79-.371,13.609-.557,20.333-.557q2.594,0,5.165.037c7.7.111,15.441.474,23.018,1.08,42.975,3.512,71.524,14.3,99.132,24.727,8.118,3.067,16.513,6.238,25,9.1,9.487,3.2,18.2,5.7,26.648,7.639a233.474,233.474,0,0,0,30.5,4.935c5.638.538,11.488.9,17.389,1.062,6.18.175,12.633.147,19.181-.083,10.11-.329,19.68-1.017,29.257-2.1,8.5-.963,16.783-2.218,25.327-3.835,15.831-3,29.864-6.751,43.435-10.381,27.059-7.238,52.814-14.126,89.077-14.126,5.393,0,11.016.152,16.913.478,14.515.733,29.276,2.178,43.873,4.3,12.589,1.826,25.479,4.216,38.314,7.1,23.7,5.331,43.735,11.558,58.366,16.106l-.194,1.183c-7.2-2.24-16.17-5.026-25.992-7.821-11.277-3.209-21.85-5.915-32.322-8.271-12.818-2.883-25.692-5.27-38.264-7.094-14.577-2.115-29.319-3.558-43.815-4.29q-8.816-.488-16.869-.477c-36.194,0-61.9,6.877-88.919,14.1-13.583,3.633-27.628,7.39-43.483,10.391-8.56,1.621-16.86,2.878-25.374,3.843-9.594,1.088-19.181,1.777-29.308,2.106-6.56.23-13.027.258-19.22.083-5.915-.167-11.779-.526-17.431-1.065a234.053,234.053,0,0,1-30.588-4.948c-8.466-1.949-17.2-4.454-26.712-7.657-8.5-2.864-16.9-6.037-25.024-9.106-27.565-10.414-56.068-21.182-98.951-24.686-7.563-.6-15.294-.967-22.976-1.078q-2.566-.037-5.156-.037c-6.714,0-13.519.186-20.3.556-9.179.5-18.575,1.354-27.928,2.534-9.99,1.261-20.217,2.932-30.4,4.966-10.8,2.159-21.858,4.789-32.862,7.817-11.614,3.2-23.5,6.925-35.322,11.084-12.425,4.372-25.135,9.341-37.777,14.771C-350.66,1541.713-364.194,1548.063-377.651,1554.9Z" transform="translate(-157.98 -457.063)" fill="#55698f" opacity="0.363"/>
    <path id="Path_3382" data-name="Path 3382" d="M-357.869,1616.82l-.331-.957c13.331-8.748,26.743-16.875,39.863-24.155,12.529-6.954,25.129-13.323,37.452-18.931,11.724-5.336,23.511-10.126,35.035-14.24,10.915-3.9,21.888-7.288,32.613-10.082,10.1-2.632,20.259-4.805,30.185-6.458,9.287-1.547,18.623-2.68,27.75-3.368,8.464-.639,16.98-.911,25.31-.812,7.633.091,15.326.5,22.863,1.209,43,4.121,71.442,17.351,98.947,30.145,8.031,3.736,16.336,7.6,24.738,11.084a238.3,238.3,0,0,0,26.39,9.315,192,192,0,0,0,30.23,6.027c5.589.659,11.389,1.1,17.239,1.3,6.127.217,12.526.187,19.019-.089a275.541,275.541,0,0,0,29-2.663c8.424-1.231,16.636-2.841,25.106-4.92,15.7-3.854,29.641-8.7,43.126-13.392,7.851-2.73,15.266-5.309,23.027-7.716,8.8-2.728,16.456-4.742,24.1-6.337A202.544,202.544,0,0,1,280.615,1558c4.883-.358,9.913-.548,14.95-.564,5.273-.016,10.739.157,16.249.516,7.4.453,14.9,1.178,22.3,2.157,6.962.922,14.019,2.094,20.974,3.483a345.631,345.631,0,0,1,37.771,9.836,439.574,439.574,0,0,1,57.409,23.406l-.254,1a439.036,439.036,0,0,0-57.329-23.374,344.962,344.962,0,0,0-37.707-9.819c-6.943-1.387-13.987-2.557-20.937-3.477-7.38-.977-14.869-1.7-22.258-2.154q-8.092-.527-15.531-.517c-36.583,0-62.326,8.953-89.4,18.367-13.5,4.694-27.455,9.548-43.179,13.408-8.488,2.084-16.718,3.7-25.16,4.931a276,276,0,0,1-29.055,2.668c-6.507.277-12.92.307-19.062.089-5.865-.208-11.681-.648-17.285-1.308a192.577,192.577,0,0,1-30.319-6.045,238.771,238.771,0,0,1-26.457-9.339c-8.414-3.49-16.725-7.355-24.762-11.094-27.459-12.773-55.852-25.98-98.754-30.092-7.522-.71-15.2-1.116-22.816-1.207-8.314-.1-16.813.174-25.261.811-9.11.688-18.43,1.819-27.7,3.363-9.909,1.65-20.048,3.82-30.134,6.448-10.709,2.79-21.664,6.177-32.563,10.067-11.508,4.107-23.279,8.891-34.987,14.22-12.307,5.6-24.892,11.962-37.406,18.907C-331.155,1599.963-344.552,1608.082-357.869,1616.82Z" transform="translate(-171.074 -480.977)" fill="#4e638a" opacity="0.309"/>
    <path id="Path_3383" data-name="Path 3383" d="M-338.083,1678.732l-.333-.783c13.192-10.648,26.466-20.545,39.453-29.415,12.4-8.469,24.877-16.232,37.081-23.072,11.608-6.507,23.284-12.355,34.7-17.38a337.991,337.991,0,0,1,32.316-12.337,290.312,290.312,0,0,1,29.924-7.943,258.36,258.36,0,0,1,27.525-4.2c7.667-.741,15.382-1.115,22.965-1.115q1.079,0,2.154.01c7.573.071,15.212.521,22.706,1.338,42.973,4.73,71.281,20.408,98.656,35.569,7.952,4.4,16.176,8.959,24.5,13.069,4.474,2.209,8.64,4.128,12.735,5.867,4.588,1.948,8.978,3.623,13.42,5.123a164.056,164.056,0,0,0,29.981,7.118c5.545.779,11.3,1.3,17.105,1.546,6.081.259,12.432.226,18.877-.1,5.021-.243,10.03-.647,14.89-1.2,4.624-.526,9.263-1.206,13.788-2.018a217.6,217.6,0,0,0,24.841-6c15.539-4.705,29.369-10.644,42.744-16.387,7.435-3.192,15.124-6.494,22.825-9.446a220.019,220.019,0,0,1,23.936-7.793,167.919,167.919,0,0,1,26.679-4.709c4.859-.457,9.865-.71,14.877-.751,5.247-.044,10.689.143,16.174.555,7.3.527,14.7,1.408,21.985,2.62,6.873,1.144,13.83,2.613,20.679,4.365,6.422,1.644,12.921,3.582,19.319,5.761,5.95,2.026,11.974,4.317,17.906,6.807,5.457,2.291,10.988,4.816,16.441,7.505,4.938,2.435,9.959,5.077,14.923,7.852,8.138,4.55,16.342,9.571,25.081,15.35l-.285.818c-8.727-5.771-16.919-10.784-25.044-15.327-4.956-2.771-9.968-5.408-14.9-7.839-5.443-2.684-10.965-5.2-16.411-7.491-5.921-2.486-11.934-4.772-17.872-6.795-6.385-2.175-12.872-4.109-19.281-5.75-6.835-1.749-13.778-3.215-20.637-4.357-7.268-1.209-14.65-2.089-21.941-2.615-5.472-.41-10.9-.6-16.135-.553-5,.042-9.991.294-14.836.75a167.4,167.4,0,0,0-26.6,4.7,219.487,219.487,0,0,0-23.881,7.775c-7.691,2.948-15.033,6.1-22.806,9.438-13.388,5.748-27.232,11.693-42.8,16.406a218.107,218.107,0,0,1-24.9,6.01c-4.535.815-9.184,1.5-13.819,2.022-4.87.555-9.89.959-14.921,1.2-6.459.323-12.825.355-18.921.1-5.821-.247-11.591-.769-17.152-1.55a164.555,164.555,0,0,1-30.071-7.14c-4.455-1.5-8.856-3.184-13.457-5.137-4.1-1.743-8.28-3.666-12.763-5.88-8.336-4.116-16.565-8.674-24.523-13.082-27.33-15.136-55.59-30.788-98.462-35.507-7.478-.815-15.1-1.264-22.658-1.335a238.28,238.28,0,0,0-25.068,1.1,257.669,257.669,0,0,0-27.473,4.191,289.826,289.826,0,0,0-29.872,7.929,337.541,337.541,0,0,0-32.266,12.317c-11.4,5.019-23.061,10.858-34.654,17.356-12.189,6.832-24.649,14.585-37.036,23.045C-311.644,1658.208-324.9,1668.094-338.083,1678.732Z" transform="translate(-184.183 -504.881)" fill="#485d86" opacity="0.256"/>
    <path id="Path_3384" data-name="Path 3384" d="M-318.294,1740.644l-.314-.619c13.052-12.549,26.188-24.214,39.043-34.673,12.274-9.986,24.625-19.142,36.708-27.214a381.782,381.782,0,0,1,34.367-20.519,305.562,305.562,0,0,1,32.018-14.59,253.3,253.3,0,0,1,29.662-9.427,220.035,220.035,0,0,1,27.3-5.029,201.228,201.228,0,0,1,24.927-1.4,195.047,195.047,0,0,1,22.548,1.467c42.912,5.338,71.07,23.466,98.3,41,7.879,5.073,16.025,10.317,24.275,15.053,4.435,2.545,8.564,4.756,12.624,6.759,4.549,2.244,8.9,4.175,13.308,5.9a144.254,144.254,0,0,0,29.749,8.208,152.754,152.754,0,0,0,16.981,1.787,175.921,175.921,0,0,0,18.746-.1c4.959-.281,9.907-.752,14.707-1.4,4.568-.617,9.151-1.414,13.622-2.37a186.1,186.1,0,0,0,24.555-7.064c15.367-5.551,29.07-12.572,42.322-19.364,7.374-3.778,15-7.685,22.646-11.186a198.6,198.6,0,0,1,23.79-9.258,144.123,144.123,0,0,1,26.553-5.645,147.52,147.52,0,0,1,14.817-.941c5.228-.071,10.649.129,16.114.593a190.366,190.366,0,0,1,21.671,3.082,200.57,200.57,0,0,1,20.382,5.247c6.336,1.989,12.741,4.341,19.038,6.991,5.872,2.471,11.806,5.267,17.639,8.311,5.387,2.811,10.832,5.909,16.185,9.209,4.879,3.008,9.817,6.266,14.677,9.686,8.187,5.76,16.238,12.011,24.613,19.11l-.287.643c-8.362-7.089-16.4-13.33-24.575-19.081-4.852-3.413-9.781-6.667-14.652-9.668-5.343-3.294-10.779-6.387-16.156-9.193-5.821-3.038-11.744-5.829-17.6-8.295-6.284-2.645-12.676-4.991-19-6.976a200.2,200.2,0,0,0-20.34-5.236,189.882,189.882,0,0,0-21.625-3.075c-5.452-.463-10.86-.663-16.075-.592a147.153,147.153,0,0,0-14.777.939,143.72,143.72,0,0,0-26.478,5.629,198.213,198.213,0,0,0-23.738,9.239c-7.639,3.5-15.259,7.4-22.628,11.177-13.265,6.8-26.981,13.826-42.374,19.386a186.56,186.56,0,0,1-24.61,7.08c-4.481.958-9.074,1.757-13.652,2.375-4.81.649-9.769,1.121-14.738,1.4a176.3,176.3,0,0,1-18.789.1,153.063,153.063,0,0,1-17.026-1.793,144.636,144.636,0,0,1-29.834-8.232c-4.418-1.733-8.782-3.669-13.343-5.919-4.069-2.008-8.207-4.223-12.65-6.773-8.261-4.741-16.413-9.99-24.3-15.066-27.188-17.5-55.3-35.6-98.118-40.93a194.759,194.759,0,0,0-22.5-1.464,201.329,201.329,0,0,0-24.878,1.395,219.792,219.792,0,0,0-27.248,5.02,253.03,253.03,0,0,0-29.612,9.411,305.12,305.12,0,0,0-31.97,14.568,381.287,381.287,0,0,0-34.323,20.493c-12.07,8.062-24.407,17.208-36.669,27.184C-292.129,1716.451-305.253,1728.107-318.294,1740.644Z" transform="translate(-197.306 -528.78)" fill="#415781" opacity="0.203"/>
    <path id="Path_3385" data-name="Path 3385" d="M-298.5,1802.56l-.276-.468c6.527-7.3,13.123-14.4,19.6-21.092,6.337-6.544,12.739-12.882,19.029-18.838,12.147-11.5,24.371-22.05,36.335-31.352a371.982,371.982,0,0,1,34.03-23.657,285.408,285.408,0,0,1,31.718-16.843,227.784,227.784,0,0,1,29.4-10.91,192.283,192.283,0,0,1,27.07-5.859,173.891,173.891,0,0,1,24.028-1.691h.706a168.613,168.613,0,0,1,22.389,1.6c42.83,5.946,70.827,26.527,97.9,46.432,7.808,5.74,15.881,11.675,24.06,17.034,4.4,2.881,8.492,5.384,12.518,7.651,4.512,2.541,8.83,4.727,13.2,6.684a136.041,136.041,0,0,0,14.153,5.425,128.023,128.023,0,0,0,15.374,3.873,133.7,133.7,0,0,0,16.864,2.028,153.5,153.5,0,0,0,18.624-.11c40.252-2.624,67.624-18.963,94.095-34.764,7.317-4.367,14.882-8.884,22.481-12.936,4.087-2.18,7.875-4.065,11.58-5.764,4.153-1.9,8.1-3.53,12.075-4.971a125.62,125.62,0,0,1,41.2-7.722,142.126,142.126,0,0,1,16.063.631,157.213,157.213,0,0,1,21.356,3.544,169.57,169.57,0,0,1,20.084,6.129,188.906,188.906,0,0,1,18.755,8.219c5.79,2.916,11.634,6.217,17.369,9.814,5.312,3.331,10.671,7,15.928,10.913,4.813,3.58,9.668,7.455,14.43,11.517,4.29,3.659,8.622,7.571,12.876,11.627,3.737,3.563,7.527,7.345,11.266,11.242l-.264.481c-3.734-3.892-7.519-7.669-11.251-11.227-4.248-4.05-8.574-7.956-12.857-11.61-4.755-4.056-9.6-7.925-14.407-11.5-5.248-3.9-10.6-7.569-15.9-10.895-5.725-3.59-11.559-6.886-17.338-9.8a188.427,188.427,0,0,0-18.719-8.2A169.088,169.088,0,0,0,377,1701.075a156.837,156.837,0,0,0-21.312-3.537,141.891,141.891,0,0,0-16.027-.629,125.272,125.272,0,0,0-41.1,7.7c-3.963,1.437-7.9,3.059-12.048,4.959-3.7,1.7-7.48,3.578-11.56,5.754-7.59,4.048-15.152,8.562-22.465,12.927-26.507,15.823-53.916,32.184-94.248,34.813a153.645,153.645,0,0,1-18.662.11,134.116,134.116,0,0,1-16.9-2.033,128.4,128.4,0,0,1-15.414-3.883,136.492,136.492,0,0,1-14.19-5.438c-4.382-1.961-8.71-4.153-13.232-6.7-4.034-2.272-8.137-4.779-12.541-7.664-8.188-5.365-16.266-11.3-24.078-17.047-27.038-19.876-55-40.43-97.74-46.364a168.344,168.344,0,0,0-22.346-1.593,173.408,173.408,0,0,0-24.688,1.687,192.01,192.01,0,0,0-27.024,5.849,227.446,227.446,0,0,0-29.353,10.894A284.832,284.832,0,0,0-189.6,1707.7a371.539,371.539,0,0,0-33.993,23.631c-11.952,9.293-24.166,19.833-36.3,31.325-6.285,5.951-12.682,12.284-19.014,18.823C-285.389,1788.169-291.98,1795.26-298.5,1802.56Z" transform="translate(-210.44 -552.677)" fill="#3b517d" opacity="0.15"/>
  </g>
</svg>
